<svg xmlns="http://www.w3.org/2000/svg" xmlns:xlink="http://www.w3.org/1999/xlink" width="676pt" height="516" viewBox="0 0 676 387"><g id="graph0" class="graph" transform="scale(1 1) rotate(0) translate(4 383)"><title>G</title><polygon fill="#fff" stroke="transparent" points="-4 4 -4 -383 672 -383 672 4 -4 4"/><g id="clust1" class="cluster"><title>cluster_quorum1</title><polygon fill="none" stroke="#006400" points="8 -138 8 -213 330 -213 330 -138 8 -138"/><text x="169" y="-197.8" fill="#006400" font-family="Times,serif" font-size="14" text-anchor="middle">Blink quorum Q for height h</text></g><g id="clust2" class="cluster"><title>cluster_quorum2</title><polygon fill="none" stroke="#006400" points="338 -138 338 -213 660 -213 660 -138 338 -138"/><text x="499" y="-197.8" fill="#006400" font-family="Times,serif" font-size="14" text-anchor="middle">Blink quorum Q&apos; for height h</text></g><g id="node1" class="node"><title>lokid</title><polygon fill="#d3d3d3" stroke="#000" points="372.5 -292 295.5 -292 295.5 -254 372.5 -254 372.5 -292"/><text x="334" y="-276.8" fill="#000" font-family="Times,serif" font-size="14" text-anchor="middle">lokid</text><text x="334" y="-261.8" fill="#000" font-family="Times,serif" font-size="14" text-anchor="middle">@ height h</text></g><g id="node2" class="node"><title>SN_1</title><polygon fill="#006400" stroke="#006400" points="322 -182 268 -182 268 -146 322 -146 322 -182"/><text x="295" y="-160.3" fill="#fff" font-family="Times,serif" font-size="14" text-anchor="middle">SN</text></g><g id="edge2" class="edge"><title>lokid-&gt;SN_1</title><path fill="none" stroke="#000" d="M295.2408,-254.7947C288.3143,-249.7193 282.0293,-243.4916 278,-236 270.5854,-222.2142 274.0836,-205.236 279.7845,-191.2295"/><polygon fill="#000" stroke="#000" points="282.992 -192.632 283.976 -182.083 276.628 -189.716 282.992 -192.632"/><text x="285.5" y="-224.8" fill="#000" font-family="Times,serif" font-size="14" text-anchor="middle">②</text></g><g id="node5" class="node"><title>SN_21</title><polygon fill="#006400" stroke="#006400" points="400 -182 346 -182 346 -146 400 -146 400 -182"/><text x="373" y="-160.3" fill="#fff" font-family="Times,serif" font-size="14" text-anchor="middle">SN</text></g><g id="edge3" class="edge"><title>lokid-&gt;SN_21</title><path fill="none" stroke="#000" d="M340.8826,-253.7639C347.0277,-236.5892 356.1025,-211.2264 363.0397,-191.8376"/><polygon fill="#000" stroke="#000" points="366.372 -192.913 366.446 -182.318 359.781 -190.554 366.372 -192.913"/><text x="359.5" y="-224.8" fill="#000" font-family="Times,serif" font-size="14" text-anchor="middle">②</text></g><g id="node8" class="node"><title>wallet</title><polygon fill="none" stroke="#000" points="361 -379 307 -379 307 -343 361 -343 361 -379"/><text x="334" y="-357.3" fill="#000" font-family="Times,serif" font-size="14" text-anchor="middle">wallet</text></g><g id="edge30" class="edge"><title>lokid-&gt;wallet</title><path fill="none" stroke="#000" d="M344.7412,-292.0466C348.9844,-301.7936 352.353,-313.9124 350,-325 349.401,-327.8226 348.5649,-330.6925 347.5862,-333.5175"/><polygon fill="#000" stroke="#000" points="344.331 -332.232 343.846 -342.815 350.825 -334.844 344.331 -332.232"/><text x="357.5" y="-313.8" fill="#000" font-family="Times,serif" font-size="14" text-anchor="middle">⑥</text></g><g id="edge4" class="edge"><title>SN_1-&gt;lokid</title><path fill="none" stroke="#000" d="M301.5542,-182.3181C307.5923,-199.1939 316.6512,-224.5123 323.6637,-244.1112"/><polygon fill="#000" stroke="#000" points="320.453 -245.528 327.117 -253.764 327.044 -243.169 320.453 -245.528"/><text x="327.5" y="-224.8" fill="#000" font-family="Times,serif" font-size="14" text-anchor="middle">⑤</text></g><g id="node3" class="node"><title>SN_2</title><polygon fill="#006400" stroke="#006400" points="70 -182 16 -182 16 -146 70 -146 70 -182"/><text x="43" y="-160.3" fill="#fff" font-family="Times,serif" font-size="14" text-anchor="middle">SN</text></g><g id="edge7" class="edge"><title>SN_1:s-&gt;SN_2</title><path fill="none" stroke="#00f" d="M295,-146C295,-110.8573 175.9162,-96.7965 142,-106 117.4374,-112.6653 92.733,-127.1244 74.1465,-139.9376"/><polygon fill="#00f" stroke="#00f" points="71.928 -137.22 65.801 -145.864 75.981 -142.928 71.928 -137.22"/><text x="172.621" y="-107.222" fill="#00f" font-family="Times,serif" font-size="14" text-anchor="middle">③</text></g><g id="edge10" class="edge"><title>SN_1:n-&gt;SN_2:n</title><path fill="none" stroke="#dc143c" d="M294.182,-192.0935C287.4706,-230.2503 240.602,-222.5927 196,-233.5 129.8441,-249.6782 51.4256,-253.3877 43.6318,-192.3586"/><polygon fill="#dc143c" stroke="#dc143c" points="297.681 -192.25 295 -182 290.704 -191.685 297.681 -192.25"/><polygon fill="#dc143c" stroke="#dc143c" points="47.102 -191.768 43 -182 40.115 -192.195 47.102 -191.768"/><text x="172.81" y="-240.839" fill="#dc143c" font-family="Times,serif" font-size="14" text-anchor="middle">④</text></g><g id="node4" class="node"><title>SN_3</title><polygon fill="#006400" stroke="#006400" points="196 -182 142 -182 142 -146 196 -146 196 -182"/><text x="169" y="-160.3" fill="#fff" font-family="Times,serif" font-size="14" text-anchor="middle">SN</text></g><g id="edge6" class="edge"><title>SN_1:s-&gt;SN_3</title><path fill="none" stroke="#00f" d="M295,-146C295,-109.4345 242.3542,-127.6612 205.1224,-145.1234"/><polygon fill="#00f" stroke="#00f" points="203.514 -142.013 196.03 -149.513 206.557 -148.317 203.514 -142.013"/></g><g id="edge12" class="edge"><title>SN_1-&gt;SN_3</title><path fill="none" stroke="#dc143c" d="M267.5798,-164C249.5979,-164 225.8623,-164 206.1877,-164"/><polygon fill="#dc143c" stroke="#dc143c" points="206.03 -160.5 196.03 -164 206.03 -167.5 206.03 -160.5"/></g><g id="node9" class="node"><title>peers</title><polygon fill="#d3d3d3" stroke="#000" points="331.41 -.049 336.316 -.148 341.172 -.295 345.957 -.491 350.652 -.735 355.238 -1.027 359.697 -1.365 364.012 -1.748 368.167 -2.176 372.145 -2.647 375.933 -3.161 379.517 -3.715 382.886 -4.308 386.029 -4.939 388.937 -5.605 391.6 -6.306 394.014 -7.038 396.173 -7.801 398.072 -8.592 399.71 -9.408 401.086 -10.248 402.199 -11.109 403.052 -11.989 403.647 -12.886 403.987 -13.796 404.079 -14.719 403.928 -15.65 403.54 -16.587 402.924 -17.529 402.089 -18.471 401.043 -19.413 399.796 -20.35 398.358 -21.281 396.74 -22.203 394.953 -23.114 393.006 -24.011 390.912 -24.891 388.681 -25.752 386.323 -26.592 383.85 -27.408 381.271 -28.199 378.596 -28.962 375.834 -29.694 372.996 -30.395 370.089 -31.061 367.121 -31.692 364.099 -32.285 361.031 -32.839 357.922 -33.353 354.779 -33.824 351.607 -34.252 348.41 -34.636 345.192 -34.973 341.958 -35.265 338.71 -35.509 335.451 -35.705 332.185 -35.852 328.913 -35.951 325.638 -36 322.362 -36 319.087 -35.951 315.815 -35.852 312.549 -35.705 309.29 -35.509 306.042 -35.265 302.808 -34.973 299.59 -34.636 296.393 -34.252 293.221 -33.824 290.078 -33.353 286.969 -32.839 283.901 -32.285 280.879 -31.692 277.911 -31.061 275.004 -30.395 272.166 -29.694 269.404 -28.962 266.729 -28.199 264.15 -27.408 261.677 -26.592 259.319 -25.752 257.088 -24.891 254.994 -24.011 253.047 -23.114 251.26 -22.203 249.642 -21.281 248.204 -20.35 246.957 -19.413 245.911 -18.471 245.076 -17.529 244.46 -16.587 244.072 -15.65 243.921 -14.719 244.013 -13.796 244.353 -12.886 244.948 -11.989 245.801 -11.109 246.914 -10.248 248.29 -9.408 249.928 -8.592 251.827 -7.801 253.986 -7.038 256.4 -6.306 259.063 -5.605 261.971 -4.939 265.114 -4.308 268.483 -3.715 272.067 -3.161 275.855 -2.647 279.833 -2.176 283.988 -1.748 288.303 -1.365 292.762 -1.027 297.348 -.735 302.043 -.491 306.828 -.295 311.684 -.148 316.59 -.049 321.526 0 326.474 0 331.41 -.049"/><text x="324" y="-14.3" fill="#000" font-family="Times,serif" font-size="14" text-anchor="middle">lokid p2p network</text></g><g id="edge24" class="edge"><title>SN_1-&gt;peers</title><path fill="none" stroke="#000" d="M281.2594,-145.8524C268.938,-127.2208 254.3185,-97.5601 265,-73 270.3764,-60.638 280.0522,-49.796 290.0336,-41.0787"/><polygon fill="#000" stroke="#000" points="292.493 -43.589 298.028 -34.555 288.067 -38.166 292.493 -43.589"/><text x="242.016" y="-76.764" fill="#000" font-family="Times,serif" font-size="14" text-anchor="middle">⑤</text></g><g id="edge13" class="edge"><title>SN_2:e-&gt;SN_3:w</title><path fill="none" stroke="#dc143c" d="M70,-164C98.375,-164 107.8795,-164 131.9792,-164"/><polygon fill="#dc143c" stroke="#dc143c" points="132 -167.5 142 -164 132 -160.5 132 -167.5"/><text x="98.427" y="-167.8" fill="#dc143c" font-family="Times,serif" font-size="14" text-anchor="middle">④</text></g><g id="edge25" class="edge"><title>SN_2-&gt;peers</title><path fill="none" stroke="#000" d="M70.2428,-149.0765C103.7002,-130.8276 162.2615,-99.1422 213,-73 235.8793,-61.2118 261.6243,-48.4259 282.5561,-38.1511"/><polygon fill="#000" stroke="#000" points="284.366 -41.162 291.807 -33.62 281.287 -34.875 284.366 -41.162"/></g><g id="edge11" class="edge"><title>SN_3:e-&gt;SN_1:w</title><path fill="none" stroke="#dc143c" d="M196,-164C224.375,-164 233.8795,-164 257.9792,-164"/><polygon fill="#dc143c" stroke="#dc143c" points="258 -167.5 268 -164 258 -160.5 258 -167.5"/><text x="224.427" y="-167.8" fill="#dc143c" font-family="Times,serif" font-size="14" text-anchor="middle">④</text></g><g id="edge14" class="edge"><title>SN_3-&gt;SN_2</title><path fill="none" stroke="#dc143c" d="M141.5798,-164C123.5979,-164 99.8623,-164 80.1877,-164"/><polygon fill="#dc143c" stroke="#dc143c" points="80.03 -160.5 70.03 -164 80.03 -167.5 80.03 -160.5"/></g><g id="edge26" class="edge"><title>SN_3-&gt;peers</title><path fill="none" stroke="#000" d="M183.9867,-145.7374C203.1457,-122.9474 237.93,-83.3967 272,-54 277.3621,-49.3734 283.3232,-44.7929 289.241,-40.5289"/><polygon fill="#000" stroke="#000" points="291.616 -43.139 297.806 -34.54 287.605 -37.402 291.616 -43.139"/></g><g id="edge5" class="edge"><title>SN_21-&gt;lokid</title><path fill="none" stroke="#000" d="M375.3539,-182.2407C376.5215,-197.287 376.3767,-218.8668 369,-236 367.5139,-239.4516 365.5566,-242.777 363.3255,-245.9228"/><polygon fill="#000" stroke="#000" points="360.516 -243.83 356.916 -253.794 365.944 -248.25 360.516 -243.83"/><text x="380.5" y="-224.8" fill="#000" font-family="Times,serif" font-size="14" text-anchor="middle">⑤</text></g><g id="node6" class="node"><title>SN_22</title><polygon fill="#006400" stroke="#006400" points="526 -182 472 -182 472 -146 526 -146 526 -182"/><text x="499" y="-160.3" fill="#fff" font-family="Times,serif" font-size="14" text-anchor="middle">SN</text></g><g id="edge8" class="edge"><title>SN_21:s-&gt;SN_22</title><path fill="none" stroke="#00f" d="M373,-146C373,-109.4345 425.6458,-127.6612 462.8776,-145.1234"/><polygon fill="#00f" stroke="#00f" points="461.443 -148.317 471.97 -149.513 464.486 -142.013 461.443 -148.317"/><text x="413.897" y="-134.776" fill="#00f" font-family="Times,serif" font-size="14" text-anchor="middle">③</text></g><g id="edge15" class="edge"><title>SN_21:e-&gt;SN_22:w</title><path fill="none" stroke="#dc143c" d="M400,-164C428.375,-164 437.8795,-164 461.9792,-164"/><polygon fill="#dc143c" stroke="#dc143c" points="462 -167.5 472 -164 462 -160.5 462 -167.5"/><text x="428.427" y="-167.8" fill="#dc143c" font-family="Times,serif" font-size="14" text-anchor="middle">④</text></g><g id="node7" class="node"><title>SN_23</title><polygon fill="#006400" stroke="#006400" points="652 -182 598 -182 598 -146 652 -146 652 -182"/><text x="625" y="-160.3" fill="#fff" font-family="Times,serif" font-size="14" text-anchor="middle">SN</text></g><g id="edge9" class="edge"><title>SN_21:s-&gt;SN_23</title><path fill="none" stroke="#00f" d="M373,-146C373,-110.8573 492.0838,-96.7965 526,-106 550.5626,-112.6653 575.267,-127.1244 593.8535,-139.9376"/><polygon fill="#00f" stroke="#00f" points="592.019 -142.928 602.199 -145.864 596.072 -137.22 592.019 -142.928"/></g><g id="edge17" class="edge"><title>SN_21:n-&gt;SN_23:n</title><path fill="none" stroke="#dc143c" d="M373.6318,-192.3586C381.4256,-253.3877 459.8441,-249.6782 526,-233.5 570.602,-222.5927 617.4706,-230.2503 624.182,-192.0935"/><polygon fill="#dc143c" stroke="#dc143c" points="377.102 -191.768 373 -182 370.115 -192.195 377.102 -191.768"/><polygon fill="#dc143c" stroke="#dc143c" points="627.681 -192.25 625 -182 620.704 -191.685 627.681 -192.25"/><text x="518.516" y="-237.296" fill="#dc143c" font-family="Times,serif" font-size="14" text-anchor="middle">④</text></g><g id="edge27" class="edge"><title>SN_21-&gt;peers</title><path fill="none" stroke="#000" d="M380.2082,-145.7529C386.5367,-126.7808 393.2689,-96.6114 383,-73 377.6236,-60.638 367.9478,-49.796 357.9664,-41.0787"/><polygon fill="#000" stroke="#000" points="359.933 -38.166 349.972 -34.555 355.507 -43.589 359.933 -38.166"/></g><g id="edge16" class="edge"><title>SN_22-&gt;SN_21</title><path fill="none" stroke="#dc143c" d="M471.5798,-164C453.5979,-164 429.8623,-164 410.1877,-164"/><polygon fill="#dc143c" stroke="#dc143c" points="410.03 -160.5 400.03 -164 410.03 -167.5 410.03 -160.5"/></g><g id="edge18" class="edge"><title>SN_22:e-&gt;SN_23:w</title><path fill="none" stroke="#dc143c" d="M526,-164C554.375,-164 563.8795,-164 587.9792,-164"/><polygon fill="#dc143c" stroke="#dc143c" points="588 -167.5 598 -164 588 -160.5 588 -167.5"/></g><g id="edge28" class="edge"><title>SN_22-&gt;peers</title><path fill="none" stroke="#000" d="M482.7619,-145.8937C461.6164,-122.9151 422.8677,-82.8081 385,-54 378.1767,-48.8092 370.5457,-43.7756 363.0529,-39.1986"/><polygon fill="#000" stroke="#000" points="364.764 -36.144 354.377 -34.053 361.193 -42.165 364.764 -36.144"/><text x="414.835" y="-89.192" fill="#000" font-family="Times,serif" font-size="14" text-anchor="middle">⑤</text></g><g id="edge19" class="edge"><title>SN_23-&gt;SN_22</title><path fill="none" stroke="#dc143c" d="M597.5798,-164C579.5979,-164 555.8623,-164 536.1877,-164"/><polygon fill="#dc143c" stroke="#dc143c" points="536.03 -160.5 526.03 -164 536.03 -167.5 536.03 -160.5"/><text x="554.519" y="-167.8" fill="#dc143c" font-family="Times,serif" font-size="14" text-anchor="middle">④</text></g><g id="edge29" class="edge"><title>SN_23-&gt;peers</title><path fill="none" stroke="#000" d="M597.9589,-150.417C562.1578,-132.4818 497.0141,-100.0137 441,-73 416.4115,-61.1418 388.7779,-48.1367 366.5427,-37.7511"/><polygon fill="#000" stroke="#000" points="367.911 -34.527 357.368 -33.471 364.951 -40.871 367.911 -34.527"/></g><g id="edge1" class="edge"><title>wallet-&gt;lokid</title><path fill="none" stroke="#000" d="M334,-342.7663C334,-331.0875 334,-315.6692 334,-302.2978"/><polygon fill="#000" stroke="#000" points="337.5 -302.123 334 -292.123 330.5 -302.123 337.5 -302.123"/><text x="341.5" y="-313.8" fill="#000" font-family="Times,serif" font-size="14" text-anchor="middle">①</text></g></g></svg>