<svg xmlns="http://www.w3.org/2000/svg" xmlns:xlink="http://www.w3.org/1999/xlink" width="932" height="124" viewBox="0 0 699 93"><g id="graph0" class="graph" transform="scale(1 1) rotate(0) translate(4 88.9997)"><title>quorums</title><polygon fill="#fff" stroke="transparent" points="-4 4 -4 -89 695 -89 695 4 -4 4"/><g id="node1" class="node"><title>blocks</title><polygon fill="none" stroke="#000" points="0 -.5 0 -46.5 691 -46.5 691 -.5 0 -.5"/><text x="31.5" y="-31.3" fill="#000" font-family="Times,serif" font-size="14" text-anchor="middle">height:</text><polyline fill="none" stroke="#000" points="0 -23.5 63 -23.5"/><text x="31.5" y="-8.3" fill="#000" font-family="Times,serif" font-size="14" text-anchor="middle">quorum:</text><polyline fill="none" stroke="#000" points="63 -.5 63 -46.5"/><text x="77" y="-31.3" fill="#000" font-family="Times,serif" font-size="14" text-anchor="middle">...</text><polyline fill="none" stroke="#000" points="91 -23.5 91 -46.5"/><text x="113" y="-31.3" fill="#000" font-family="Times,serif" font-size="14" text-anchor="middle">1002</text><polyline fill="none" stroke="#000" points="135 -23.5 135 -46.5"/><text x="157" y="-31.3" fill="#000" font-family="Times,serif" font-size="14" text-anchor="middle">1003</text><polyline fill="none" stroke="#000" points="179 -23.5 179 -46.5"/><text x="201" y="-31.3" fill="#000" font-family="Times,serif" font-size="14" text-anchor="middle">1004</text><polyline fill="none" stroke="#000" points="63 -23.5 223 -23.5"/><text x="143" y="-8.3" fill="#000" font-family="Times,serif" font-size="14" text-anchor="middle">Q₁</text><polyline fill="none" stroke="#000" points="223 -.5 223 -46.5"/><text x="245" y="-31.3" fill="#000" font-family="Times,serif" font-size="14" text-anchor="middle">1005</text><polyline fill="none" stroke="#000" points="267 -23.5 267 -46.5"/><text x="289" y="-31.3" fill="#000" font-family="Times,serif" font-size="14" text-anchor="middle">1006</text><polyline fill="none" stroke="#000" points="311 -23.5 311 -46.5"/><text x="333" y="-31.3" fill="#000" font-family="Times,serif" font-size="14" text-anchor="middle">1007</text><polyline fill="none" stroke="#000" points="355 -23.5 355 -46.5"/><text x="377" y="-31.3" fill="#000" font-family="Times,serif" font-size="14" text-anchor="middle">1008</text><polyline fill="none" stroke="#000" points="399 -23.5 399 -46.5"/><text x="421" y="-31.3" fill="#000" font-family="Times,serif" font-size="14" text-anchor="middle">1009</text><polyline fill="none" stroke="#000" points="223 -23.5 443 -23.5"/><text x="333" y="-8.3" fill="#000" font-family="Times,serif" font-size="14" text-anchor="middle">Q₂</text><polyline fill="none" stroke="#000" points="443 -.5 443 -46.5"/><text x="465" y="-31.3" fill="#000" font-family="Times,serif" font-size="14" text-anchor="middle">1010</text><polyline fill="none" stroke="#000" points="487 -23.5 487 -46.5"/><text x="509" y="-31.3" fill="#000" font-family="Times,serif" font-size="14" text-anchor="middle">1011</text><polyline fill="none" stroke="#000" points="531 -23.5 531 -46.5"/><text x="553" y="-31.3" fill="#000" font-family="Times,serif" font-size="14" text-anchor="middle">1012</text><polyline fill="none" stroke="#000" points="575 -23.5 575 -46.5"/><text x="597" y="-31.3" fill="#000" font-family="Times,serif" font-size="14" text-anchor="middle">1013</text><polyline fill="none" stroke="#000" points="619 -23.5 619 -46.5"/><text x="641" y="-31.3" fill="#000" font-family="Times,serif" font-size="14" text-anchor="middle">1014</text><polyline fill="none" stroke="#000" points="443 -23.5 663 -23.5"/><text x="553" y="-8.3" fill="#000" font-family="Times,serif" font-size="14" text-anchor="middle">Q₃</text><polyline fill="none" stroke="#000" points="663 -.5 663 -46.5"/><text x="677" y="-19.8" fill="#000" font-family="Times,serif" font-size="14" text-anchor="middle">...</text></g><g id="edge1" class="edge"><title>blocks:h5-&gt;blocks:h3</title><path fill="none" stroke="#0000cd" d="M248.7785,-46.6855C250.5886,-58.8625 241.0781,-70 200.5,-70 168.7983,-70 156.0589,-63.2022 152.8654,-54.4218"/><polygon fill="#0000cd" stroke="#0000cd" points="155.46 -53.942 152.221 -46.685 150.228 -54.377 155.46 -53.942"/><text x="181.129" y="-73.8" fill="#0000cd" font-family="Times,serif" font-size="14" text-anchor="middle">critical</text></g><g id="edge2" class="edge"><title>blocks:h6-&gt;blocks:h3</title><path fill="none" stroke="#0000cd" d="M292.4952,-46.6855C293.3801,-58.8625 279.9219,-70 222.5,-70 177.1906,-70 159.2537,-63.0656 154.1374,-54.1578"/><polygon fill="#0000cd" stroke="#0000cd" points="156.67 -53.452 152.505 -46.685 151.541 -54.573 156.67 -53.452"/></g><g id="edge3" class="edge"><title>blocks:h7-&gt;blocks:h3</title><path fill="none" stroke="#0000cd" d="M336.212,-46.6855C336.1716,-58.8625 318.7656,-70 244.5,-70 185.3196,-70 162.2456,-62.9276 155.2931,-53.8926"/><polygon fill="#0000cd" stroke="#0000cd" points="157.73 -52.908 152.788 -46.685 152.771 -54.632 157.73 -52.908"/></g><g id="edge4" class="edge"><title>blocks:h8-&gt;blocks:h3</title><path fill="none" stroke="#0000cd" d="M380.9223,-46.6855C379.9357,-58.8625 358.4922,-70 267,-70 193.3774,-70 165.1128,-62.7883 156.3664,-53.6263"/><polygon fill="#0000cd" stroke="#0000cd" points="158.661 -52.339 153.078 -46.685 153.917 -54.587 158.661 -52.339"/></g><g id="edge5" class="edge"><title>blocks:h9-&gt;blocks:h3</title><path fill="none" stroke="#0000cd" d="M424.6391,-46.6855C422.7272,-58.8625 397.3359,-70 289,-70 200.9771,-70 167.7106,-62.6475 157.3047,-53.3589"/><polygon fill="#0000cd" stroke="#0000cd" points="159.437 -51.807 153.361 -46.685 154.917 -54.478 159.437 -51.807"/></g><g id="edge6" class="edge"><title>blocks:h10-&gt;blocks:h8</title><path fill="none" stroke="#006400" d="M469.7785,-46.6855C471.5886,-58.8625 462.0781,-70 421.5,-70 389.7983,-70 377.0589,-63.2022 373.8654,-54.4218"/><polygon fill="#006400" stroke="#006400" points="376.46 -53.942 373.221 -46.685 371.228 -54.377 376.46 -53.942"/><text x="402.129" y="-73.8" fill="#006400" font-family="Times,serif" font-size="14" text-anchor="middle">critical</text></g><g id="edge7" class="edge"><title>blocks:h11-&gt;blocks:h8</title><path fill="none" stroke="#006400" d="M513.4952,-46.6855C514.3801,-58.8625 500.9219,-70 443.5,-70 398.1906,-70 380.2537,-63.0656 375.1374,-54.1578"/><polygon fill="#006400" stroke="#006400" points="377.67 -53.452 373.505 -46.685 372.541 -54.573 377.67 -53.452"/></g><g id="edge8" class="edge"><title>blocks:h12-&gt;blocks:h8</title><path fill="none" stroke="#006400" d="M557.212,-46.6855C557.1716,-58.8625 539.7656,-70 465.5,-70 406.3196,-70 383.2456,-62.9276 376.2931,-53.8926"/><polygon fill="#006400" stroke="#006400" points="378.73 -52.908 373.788 -46.685 373.771 -54.632 378.73 -52.908"/></g><g id="edge9" class="edge"><title>blocks:h13-&gt;blocks:h8</title><path fill="none" stroke="#006400" d="M600.9288,-46.6855C599.9631,-58.8625 578.6094,-70 487.5,-70 414.1854,-70 386.0391,-62.7883 377.3381,-53.6263"/><polygon fill="#006400" stroke="#006400" points="379.64 -52.354 374.071 -46.685 374.89 -54.589 379.64 -52.354"/></g><g id="edge10" class="edge"><title>blocks:h14-&gt;blocks:h8</title><path fill="none" stroke="#006400" d="M644.6455,-46.6855C642.7546,-58.8625 617.4531,-70 509.5,-70 421.7881,-70 388.6391,-62.6475 378.2777,-53.3589"/><polygon fill="#006400" stroke="#006400" points="380.418 -51.821 374.354 -46.685 375.893 -54.481 380.418 -51.821"/></g></g></svg>