<svg xmlns="http://www.w3.org/2000/svg" xmlns:xlink="http://www.w3.org/1999/xlink" width="787pt" height="130pt" viewBox="0 0 787 130"><g id="graph0" class="graph" transform="scale(1 1) rotate(0) translate(4 126)"><title>quorums</title><polygon fill="#fff" stroke="transparent" points="-4 4 -4 -126 783 -126 783 4 -4 4"/><g id="node1" class="node"><title>blocks</title><polygon fill="none" stroke="#000" points="0 -.5 0 -46.5 779 -46.5 779 -.5 0 -.5"/><text x="31.5" y="-31.3" fill="#000" font-family="Times,serif" font-size="14" text-anchor="middle">height:</text><polyline fill="none" stroke="#000" points="0 -23.5 63 -23.5"/><text x="31.5" y="-8.3" fill="#000" font-family="Times,serif" font-size="14" text-anchor="middle">quorum:</text><polyline fill="none" stroke="#000" points="63 -.5 63 -46.5"/><text x="77" y="-19.8" fill="#000" font-family="Times,serif" font-size="14" text-anchor="middle">...</text><polyline fill="none" stroke="#000" points="91 -.5 91 -46.5"/><text x="113" y="-31.3" fill="#000" font-family="Times,serif" font-size="14" text-anchor="middle">1000</text><polyline fill="none" stroke="#000" points="135 -23.5 135 -46.5"/><text x="157" y="-31.3" fill="#000" font-family="Times,serif" font-size="14" text-anchor="middle">1001</text><polyline fill="none" stroke="#000" points="179 -23.5 179 -46.5"/><text x="201" y="-31.3" fill="#000" font-family="Times,serif" font-size="14" text-anchor="middle">1002</text><polyline fill="none" stroke="#000" points="223 -23.5 223 -46.5"/><text x="245" y="-31.3" fill="#000" font-family="Times,serif" font-size="14" text-anchor="middle">1003</text><polyline fill="none" stroke="#000" points="267 -23.5 267 -46.5"/><text x="289" y="-31.3" fill="#000" font-family="Times,serif" font-size="14" text-anchor="middle">1004</text><polyline fill="none" stroke="#000" points="91 -23.5 311 -23.5"/><text x="201" y="-8.3" fill="#000" font-family="Times,serif" font-size="14" text-anchor="middle">Q₁</text><polyline fill="none" stroke="#000" points="311 -.5 311 -46.5"/><text x="333" y="-31.3" fill="#000" font-family="Times,serif" font-size="14" text-anchor="middle">1005</text><polyline fill="none" stroke="#000" points="355 -23.5 355 -46.5"/><text x="377" y="-31.3" fill="#000" font-family="Times,serif" font-size="14" text-anchor="middle">1006</text><polyline fill="none" stroke="#000" points="399 -23.5 399 -46.5"/><text x="421" y="-31.3" fill="#000" font-family="Times,serif" font-size="14" text-anchor="middle">1007</text><polyline fill="none" stroke="#000" points="443 -23.5 443 -46.5"/><text x="465" y="-31.3" fill="#000" font-family="Times,serif" font-size="14" text-anchor="middle">1008</text><polyline fill="none" stroke="#000" points="487 -23.5 487 -46.5"/><text x="509" y="-31.3" fill="#000" font-family="Times,serif" font-size="14" text-anchor="middle">1009</text><polyline fill="none" stroke="#000" points="311 -23.5 531 -23.5"/><text x="421" y="-8.3" fill="#000" font-family="Times,serif" font-size="14" text-anchor="middle">Q₂</text><polyline fill="none" stroke="#000" points="531 -.5 531 -46.5"/><text x="553" y="-31.3" fill="#000" font-family="Times,serif" font-size="14" text-anchor="middle">1010</text><polyline fill="none" stroke="#000" points="575 -23.5 575 -46.5"/><text x="597" y="-31.3" fill="#000" font-family="Times,serif" font-size="14" text-anchor="middle">1011</text><polyline fill="none" stroke="#000" points="619 -23.5 619 -46.5"/><text x="641" y="-31.3" fill="#000" font-family="Times,serif" font-size="14" text-anchor="middle">1012</text><polyline fill="none" stroke="#000" points="663 -23.5 663 -46.5"/><text x="685" y="-31.3" fill="#000" font-family="Times,serif" font-size="14" text-anchor="middle">1013</text><polyline fill="none" stroke="#000" points="707 -23.5 707 -46.5"/><text x="729" y="-31.3" fill="#000" font-family="Times,serif" font-size="14" text-anchor="middle">1014</text><polyline fill="none" stroke="#000" points="531 -23.5 751 -23.5"/><text x="641" y="-8.3" fill="#000" font-family="Times,serif" font-size="14" text-anchor="middle">Q₃</text><polyline fill="none" stroke="#000" points="751 -.5 751 -46.5"/><text x="765" y="-19.8" fill="#000" font-family="Times,serif" font-size="14" text-anchor="middle">...</text></g><g id="node2" class="node"><title>tx1</title><polygon fill="none" stroke="#0000cd" points="171 -83.5 171 -121.5 230 -121.5 230 -83.5 171 -83.5"/><text x="200.5" y="-106.3" fill="#0000cd" font-family="Times,serif" font-size="14" text-anchor="middle">TX₁</text><text x="200.5" y="-91.3" fill="#0000cd" font-family="Times,serif" font-size="14" text-anchor="middle">h=1002</text></g><g id="edge1" class="edge"><title>tx1-&gt;blocks:h0</title><path fill="none" stroke="#0000cd" stroke-dasharray="1 5" d="M170.7072,-96.4727C147.5711,-90.0315 118.5642,-77.4243 113.3288,-54.0908"/><polygon fill="#0000cd" stroke="#0000cd" points="115.924 -53.671 112.5 -46.5 110.705 -54.241 115.924 -53.671"/></g><g id="edge2" class="edge"><title>tx1-&gt;blocks:n</title><path fill="none" stroke="#0000cd" stroke-dasharray="1 5" d="M175.4153,-83.4424C167.3097,-75.4384 159.774,-65.3582 157.3276,-54.077"/><polygon fill="#0000cd" stroke="#0000cd" points="159.924 -53.671 156.5 -46.5 154.705 -54.241 159.924 -53.671"/></g><g id="edge3" class="edge"><title>tx1-&gt;blocks:h2</title><path fill="none" stroke="#0000cd" d="M200.5,-83.3207C200.5,-74.7038 200.5,-64.2174 200.5,-54.1141"/><polygon fill="#0000cd" stroke="#0000cd" points="203.125 -54 200.5 -46.5 197.875 -54 203.125 -54"/></g><g id="edge4" class="edge"><title>tx1-&gt;blocks:h3</title><path fill="none" stroke="#0000cd" stroke-dasharray="5 2" d="M225.5847,-83.4424C233.6903,-75.4384 241.226,-65.3582 243.6724,-54.077"/><polygon fill="#0000cd" stroke="#0000cd" points="246.295 -54.241 244.5 -46.5 241.076 -53.671 246.295 -54.241"/></g><g id="edge5" class="edge"><title>tx1-&gt;blocks:h4</title><path fill="none" stroke="#0000cd" stroke-dasharray="5 2" d="M230.2928,-96.4727C253.4289,-90.0315 282.4358,-77.4243 287.6712,-54.0908"/><polygon fill="#0000cd" stroke="#0000cd" points="290.295 -54.241 288.5 -46.5 285.076 -53.671 290.295 -54.241"/></g><g id="node3" class="node"><title>tx2</title><polygon fill="none" stroke="#006400" points="347 -83.5 347 -121.5 406 -121.5 406 -83.5 347 -83.5"/><text x="376.5" y="-106.3" fill="#006400" font-family="Times,serif" font-size="14" text-anchor="middle">TX₂</text><text x="376.5" y="-91.3" fill="#006400" font-family="Times,serif" font-size="14" text-anchor="middle">h=1006</text></g><g id="edge6" class="edge"><title>tx2-&gt;blocks:h4</title><path fill="none" stroke="#006400" stroke-dasharray="1 5" d="M346.7072,-96.4727C323.5711,-90.0315 294.5642,-77.4243 289.3288,-54.0908"/><polygon fill="#006400" stroke="#006400" points="291.924 -53.671 288.5 -46.5 286.705 -54.241 291.924 -53.671"/></g><g id="edge7" class="edge"><title>tx2-&gt;blocks:h5</title><path fill="none" stroke="#006400" stroke-dasharray="1 5" d="M351.4153,-83.4424C343.3097,-75.4384 335.774,-65.3582 333.3276,-54.077"/><polygon fill="#006400" stroke="#006400" points="335.924 -53.671 332.5 -46.5 330.705 -54.241 335.924 -53.671"/></g><g id="edge8" class="edge"><title>tx2-&gt;blocks:h6</title><path fill="none" stroke="#006400" d="M376.5,-83.3207C376.5,-74.7038 376.5,-64.2174 376.5,-54.1141"/><polygon fill="#006400" stroke="#006400" points="379.125 -54 376.5 -46.5 373.875 -54 379.125 -54"/></g><g id="edge9" class="edge"><title>tx2-&gt;blocks:h7</title><path fill="none" stroke="#006400" stroke-dasharray="5 2" d="M402.4159,-83.3024C410.6217,-75.3438 418.2068,-65.3291 420.6677,-54.0697"/><polygon fill="#006400" stroke="#006400" points="423.289 -54.242 421.5 -46.5 418.071 -53.668 423.289 -54.242"/></g><g id="edge10" class="edge"><title>tx2-&gt;blocks:h8</title><path fill="none" stroke="#006400" stroke-dasharray="5 2" d="M406.1357,-96.7118C429.5987,-90.3846 459.2903,-77.8263 464.6512,-54.1948"/><polygon fill="#006400" stroke="#006400" points="467.287 -54.243 465.5 -46.5 462.068 -53.667 467.287 -54.243"/></g><g id="node4" class="node"><title>tx3</title><polygon fill="none" stroke="#b22222" points="480 -83.5 480 -121.5 539 -121.5 539 -83.5 480 -83.5"/><text x="509.5" y="-106.3" fill="#b22222" font-family="Times,serif" font-size="14" text-anchor="middle">TX₃</text><text x="509.5" y="-91.3" fill="#b22222" font-family="Times,serif" font-size="14" text-anchor="middle">h=1009</text></g><g id="edge11" class="edge"><title>tx3-&gt;blocks:h7</title><path fill="none" stroke="#b22222" stroke-dasharray="1 5" d="M479.7072,-96.4727C456.5711,-90.0315 427.5642,-77.4243 422.3288,-54.0908"/><polygon fill="#b22222" stroke="#b22222" points="424.924 -53.671 421.5 -46.5 419.705 -54.241 424.924 -53.671"/></g><g id="edge12" class="edge"><title>tx3-&gt;blocks:h8</title><path fill="none" stroke="#b22222" stroke-dasharray="1 5" d="M484.4153,-83.4424C476.3097,-75.4384 468.774,-65.3582 466.3276,-54.077"/><polygon fill="#b22222" stroke="#b22222" points="468.924 -53.671 465.5 -46.5 463.705 -54.241 468.924 -53.671"/></g><g id="edge13" class="edge"><title>tx3-&gt;blocks:h9</title><path fill="none" stroke="#b22222" d="M509.5,-83.3207C509.5,-74.7038 509.5,-64.2174 509.5,-54.1141"/><polygon fill="#b22222" stroke="#b22222" points="512.125 -54 509.5 -46.5 506.875 -54 512.125 -54"/></g><g id="edge14" class="edge"><title>tx3-&gt;blocks:h10</title><path fill="none" stroke="#b22222" stroke-dasharray="5 2" d="M534.5847,-83.4424C542.6903,-75.4384 550.226,-65.3582 552.6724,-54.077"/><polygon fill="#b22222" stroke="#b22222" points="555.295 -54.241 553.5 -46.5 550.076 -53.671 555.295 -54.241"/></g><g id="edge15" class="edge"><title>tx3-&gt;blocks:h11</title><path fill="none" stroke="#b22222" stroke-dasharray="5 2" d="M539.2928,-96.4727C562.4289,-90.0315 591.4358,-77.4243 596.6712,-54.0908"/><polygon fill="#b22222" stroke="#b22222" points="599.295 -54.241 597.5 -46.5 594.076 -53.671 599.295 -54.241"/></g></g></svg>